<?xml version="1.0" encoding="UTF-8"?>
<svg id="Camada_2" data-name="Camada 2" xmlns="http://www.w3.org/2000/svg" xmlns:xlink="http://www.w3.org/1999/xlink" viewBox="0 0 121.25 111.64">
  <defs>
    <style>
      .cls-1 {
        fill: url(#Gradiente_sem_nome_5);
      }

      .cls-2 {
        fill: url(#Gradiente_sem_nome_5-5);
      }

      .cls-3 {
        fill: url(#Gradiente_sem_nome_5-6);
      }

      .cls-4 {
        fill: url(#Gradiente_sem_nome_5-4);
      }

      .cls-5 {
        fill: url(#Gradiente_sem_nome_5-3);
      }

      .cls-6 {
        fill: url(#Gradiente_sem_nome_5-2);
      }
    </style>
    <linearGradient id="Gradiente_sem_nome_5" data-name="Gradiente sem nome 5" x1="0" y1="53.78" x2="121.25" y2="53.78" gradientUnits="userSpaceOnUse">
      <stop offset="0" stop-color="#15162c"/>
      <stop offset="1" stop-color="#18455a"/>
    </linearGradient>
    <linearGradient id="Gradiente_sem_nome_5-2" data-name="Gradiente sem nome 5" x1="22.13" y1="54.93" x2="99.16" y2="54.93" xlink:href="#Gradiente_sem_nome_5"/>
    <linearGradient id="Gradiente_sem_nome_5-3" data-name="Gradiente sem nome 5" x1="43.28" y1="58.19" x2="78.58" y2="58.19" xlink:href="#Gradiente_sem_nome_5"/>
    <linearGradient id="Gradiente_sem_nome_5-4" data-name="Gradiente sem nome 5" x1="43.38" y1="95.17" x2="79.49" y2="95.17" xlink:href="#Gradiente_sem_nome_5"/>
    <linearGradient id="Gradiente_sem_nome_5-5" data-name="Gradiente sem nome 5" x1="42.37" y1="106.28" x2="78.49" y2="106.28" xlink:href="#Gradiente_sem_nome_5"/>
    <linearGradient id="Gradiente_sem_nome_5-6" data-name="Gradiente sem nome 5" x1="55.41" y1="83.4" x2="67.02" y2="83.4" xlink:href="#Gradiente_sem_nome_5"/>
  </defs>
  <g id="Camada_1-2" data-name="Camada 1">
    <g>
      <path class="cls-1" d="M104.03,18.11c22.77,23.61,23.56,63.12-1.25,85.87-3.5,3.21-9.34,5.81-12.53.68-3.59-5.77,3.08-9.63,6.14-13.24,25.86-30.56,5.88-76.7-34.11-78.21S-2.03,58.23,23.7,89.27c3.64,4.4,11.41,8.47,8.3,14.97-2.22,4.63-7.48,3.56-10.91.91C.08,88.94-5.53,58.31,5.6,34.68,23.42-3.16,74.92-12.07,104.03,18.11Z"/>
      <path class="cls-6" d="M84.5,70.26c8.26-19.93-11.16-38.5-31.33-32.53-13.94,4.13-23,19.96-16.45,33.78,1.95,4.11,7.02,6.82,3.95,12.02-1.62,2.74-4.5,3.27-7.43,2.36-5.22-1.62-10.53-16.18-10.96-21.26-2.96-34.84,39-54.06,64.63-31.03,12.6,11.32,17.26,35.25,5.45,48.56-2.86,3.22-7.76,4.81-10.63.7s.28-6.47,1.88-9.93c.39-.85.53-1.79.9-2.67Z"/>
      <path class="cls-5" d="M77.06,67.58c-.27.34-2.54,1.82-3.04,1.94-8.26,1.93-4.47-11.34-13.62-10.83-8.24.46-4.64,10.1-10.47,10.89-6.19.84-7.58-6.05-6.13-10.88,3.71-12.41,21.05-16.13,30.1-6.89,3.49,3.57,6.63,11.36,3.15,15.77Z"/>
      <path class="cls-4" d="M47.44,89.81c5.16,3.1,8.77,5.44,16.39,4.74,4.7-.43,10.07-4.61,11.13-4.74.52-.06,4.58,2.31,4.53,2.67-.21,1.79-6.6,5.65-8.99,6.54-8.63,3.2-19.49,1.07-25.28-4.1-3.59-3.21-1.43-2.84,2.23-5.11Z"/>
      <path class="cls-2" d="M46.44,100.92c5.16,3.1,8.77,5.44,16.39,4.74,4.7-.43,10.07-4.61,11.13-4.74.52-.06,4.58,2.31,4.53,2.67-.21,1.79-6.6,5.65-8.99,6.54-8.63,3.2-19.49,1.07-25.28-4.1-3.59-3.21-1.43-2.84,2.23-5.11Z"/>
      <path class="cls-3" d="M62.04,75.3c1.19,4.15,6.93,8.9,4.29,13.53s-11.49,2.93-10.9-3.29c.2-2.14,3.66-7.96,5.19-9.53.34-.35.52-.68.92-.74.13-.02.29-.02.49.03Z"/>
    </g>
  </g>
</svg>